<?xml version="1.0" encoding="utf-8"?>
<svg width="90px" height="90px" viewBox="0 0 90 90" version="1.1" xmlns:xlink="http://www.w3.org/1999/xlink" xmlns="http://www.w3.org/2000/svg">
  <defs>
    <radialGradient gradientUnits="objectBoundingBox" cx="50.000168%" cy="50%" fx="50.000168%" fy="50%" r="75.004555%" gradientTransform="translate(0.50000167,0.5),translate(-0.50000167,-0.5)" id="gradient_1">
      <stop offset="0%" stop-color="#EFDCB1" />
      <stop offset="0%" stop-color="#F2E0BB" />
      <stop offset="1.1%" stop-color="#F2E0BC" />
      <stop offset="36.199997%" stop-color="#F9EDD2" />
      <stop offset="69.9%" stop-color="#FEF4DF" />
      <stop offset="100%" stop-color="#FFF7E4" />
    </radialGradient>
    <linearGradient gradientUnits="objectBoundingBox" x1="0.49999997" y1="1.0000001" x2="0.49999997" y2="0" id="gradient_2">
      <stop offset="0%" stop-color="#41BFEC" />
      <stop offset="23.199997%" stop-color="#4CC5EF" />
      <stop offset="64.4%" stop-color="#6BD4F6" />
      <stop offset="100%" stop-color="#8AE4FD" />
    </linearGradient>
    <linearGradient gradientUnits="objectBoundingBox" x1="0.05971074" y1="0.9402894" x2="0.5742817" y2="0.42571834" id="gradient_3">
      <stop offset="0%" stop-color="#C6EFFD" />
      <stop offset="37.5%" stop-color="#B7ECFD" />
      <stop offset="100%" stop-color="#95E6FD" />
    </linearGradient>
    <linearGradient gradientUnits="objectBoundingBox" x1="0.5" y1="1.0138335" x2="0.5" y2="0.013833523" id="gradient_4">
      <stop offset="0%" stop-color="#42C6EE" />
      <stop offset="48%" stop-color="#3BC3ED" />
      <stop offset="100%" stop-color="#2EBEEA" />
    </linearGradient>
    <path d="M90 0L90 0L90 90L0 90L0 0L90 0Z" id="path_1" />
    <clipPath id="clip_1">
      <use xlink:href="#path_1" clip-rule="evenodd" fill-rule="evenodd" />
    </clipPath>
  </defs>
  <g id="Document">
    <path d="M90 0L90 0L90 90L0 90L0 0L90 0Z" id="Document" fill="none" stroke="none" />
    <path d="M78.9824 64.1581C79.6856 65.4209 81.0974 66.0383 82.5431 66.0312C85.004 66.02 86.977 68.1167 86.7646 70.6184C86.5776 72.8347 84.5793 74.4688 82.3546 74.4688L68.5002 74.4688L68.5002 75.875L37.5627 75.875L26.3127 75.875L10.844 75.875C8.43931 75.875 6.50431 73.8627 6.63087 71.4298C6.75041 69.1475 8.7979 67.4375 11.0831 67.4375L12.2502 67.4375C13.9588 67.4375 15.3102 65.9145 15.0248 64.1525C14.7998 62.7702 13.5004 61.8125 12.0998 61.8125L5.219 61.8125C2.81431 61.8125 0.879311 59.8002 1.00587 57.3673C1.12541 55.085 3.1729 53.375 5.45806 53.375L14.3596 53.375C16.3017 53.375 17.8752 51.8014 17.8752 49.8594L17.8752 49.8594C17.8752 47.9173 16.3017 46.3438 14.3596 46.3438L14.3596 46.3438C12.4176 46.3438 10.844 44.7702 10.844 42.8281L10.844 42.8281C10.844 40.8861 12.4176 39.3125 14.3596 39.3125L26.3127 39.3125L26.3127 29.4688L15.7659 29.4688C12.9604 29.4688 10.702 27.1203 10.851 24.2825C10.9902 21.6205 13.3795 19.625 16.0443 19.625L26.3127 19.625L26.3127 14L60.0627 14L68.5002 14L80.4534 14C83.2588 14 85.5173 16.3484 85.3682 19.1862C85.229 21.8483 82.8398 23.8438 80.1749 23.8438L76.2346 23.8438C73.4292 23.8438 71.1707 26.1922 71.3198 29.03C71.459 31.692 73.8482 33.6875 76.5131 33.6875L79.7502 33.6875C82.2492 33.6875 84.2418 35.8616 83.9381 38.4209C83.6863 40.543 81.764 42.0378 79.6293 42.1264C77.946 42.1967 76.6452 43.7478 76.994 45.5098C77.2584 46.843 78.517 47.75 79.8754 47.75L86.0784 47.75C88.8838 47.75 91.1423 50.0984 90.9932 52.9362C90.854 55.5983 88.4648 57.5938 85.7999 57.5938L82.5627 57.5938C79.4802 57.5938 77.1712 60.8984 78.9824 64.1581L78.9824 64.1581ZM4.51587 46.3438L4.51587 46.3438C6.4579 46.3438 8.0315 44.7702 8.0315 42.8281L8.0315 42.8281C8.0315 40.8861 6.4579 39.3125 4.51587 39.3125L4.51587 39.3125C2.57384 39.3125 1.00025 40.8861 1.00025 42.8281L1.00025 42.8281C1.00025 44.7702 2.57384 46.3438 4.51587 46.3438L4.51587 46.3438Z" id="Shape" fill="url(#gradient_1)" fill-rule="evenodd" stroke="none" clip-path="url(#clip_1)" />
    <path d="M70.3125 81.5625L22.5 81.5625C20.1698 81.5625 18.2812 79.6739 18.2812 77.3438L18.2812 12.6562C18.2812 10.3261 20.1698 8.4375 22.5 8.4375L51.6895 8.4375C52.8089 8.4375 53.8819 8.88188 54.6722 9.67359L73.2952 28.2966C74.0869 29.0869 74.5312 30.1598 74.5312 31.2792L74.5312 77.3438C74.5312 79.6739 72.6427 81.5625 70.3125 81.5625L70.3125 81.5625Z" id="Shape" fill="url(#gradient_2)" stroke="none" clip-path="url(#clip_1)" />
    <path d="M73.2952 28.2966L54.6722 9.67361C54.3136 9.31501 53.8903 9.03798 53.4375 8.82986L53.4375 25.3125C53.4375 27.6427 55.3261 29.5313 57.6562 29.5313L74.1389 29.5313C73.9322 29.0784 73.6552 28.6552 73.2952 28.2966L73.2952 28.2966Z" id="Shape" fill="url(#gradient_3)" stroke="none" clip-path="url(#clip_1)" />
    <path d="M57.6562 29.5312C55.3261 29.5312 53.4375 27.6427 53.4375 25.3125L53.4375 29.5312C53.4375 31.8614 55.3261 33.75 57.6562 33.75L74.5312 33.75L74.5312 31.2792C74.5312 30.6689 74.3878 30.0769 74.1389 29.5312L57.6562 29.5312L57.6562 29.5312Z" id="Shape" fill="url(#gradient_4)" stroke="none" clip-path="url(#clip_1)" />
    <path d="M45 30.9375L29.5312 30.9375C27.9773 30.9375 26.7188 29.6789 26.7188 28.125L26.7188 28.125C26.7188 26.5711 27.9773 25.3125 29.5312 25.3125L45 25.3125C46.5539 25.3125 47.8125 26.5711 47.8125 28.125L47.8125 28.125C47.8125 29.6789 46.5539 30.9375 45 30.9375L45 30.9375ZM53.4375 68.9062L29.5312 68.9062C27.9773 68.9062 26.7188 67.6477 26.7188 66.0938L26.7188 66.0938C26.7188 64.5398 27.9773 63.2812 29.5312 63.2812L53.4375 63.2812C54.9914 63.2812 56.25 64.5398 56.25 66.0938L56.25 66.0938C56.25 67.6477 54.9914 68.9062 53.4375 68.9062L53.4375 68.9062ZM52.0312 52.0312L64.6875 52.0312C66.2414 52.0312 67.5 53.2898 67.5 54.8438L67.5 54.8438C67.5 56.3977 66.2414 57.6562 64.6875 57.6562L52.0312 57.6562C50.4773 57.6562 49.2188 56.3977 49.2188 54.8438L49.2188 54.8438C49.2188 53.2898 50.4773 52.0312 52.0312 52.0312L52.0312 52.0312ZM29.5312 52.0312L42.1875 52.0312C43.7414 52.0312 45 53.2898 45 54.8438L45 54.8438C45 56.3977 43.7414 57.6562 42.1875 57.6562L29.5312 57.6562C27.9773 57.6562 26.7188 56.3977 26.7188 54.8438L26.7188 54.8438C26.7188 53.2898 27.9773 52.0312 29.5312 52.0312L29.5312 52.0312ZM29.5312 40.7812L52.0312 40.7812C53.5852 40.7812 54.8438 42.0398 54.8438 43.5938L54.8438 43.5938C54.8438 45.1477 53.5852 46.4062 52.0312 46.4062L29.5312 46.4062C27.9773 46.4062 26.7188 45.1477 26.7188 43.5938L26.7188 43.5938C26.7188 42.0398 27.9773 40.7812 29.5312 40.7812L29.5312 40.7812ZM61.875 40.7812L64.6875 40.7812C66.2414 40.7812 67.5 42.0398 67.5 43.5938L67.5 43.5938C67.5 45.1477 66.2414 46.4062 64.6875 46.4062L61.875 46.4062C60.3211 46.4062 59.0625 45.1477 59.0625 43.5938L59.0625 43.5938C59.0625 42.0398 60.3211 40.7812 61.875 40.7812L61.875 40.7812Z" id="Shape" fill="#F1FCFF" fill-rule="evenodd" stroke="none" clip-path="url(#clip_1)" />
  </g>
</svg>