<?xml version="1.0" encoding="utf-8"?>
<svg width="64px" height="64px" viewBox="0 0 64 64" version="1.1" xmlns:xlink="http://www.w3.org/1999/xlink" xmlns="http://www.w3.org/2000/svg">
  <defs>
    <path d="M64 0L64 0L64 64L0 64L0 0L64 0Z" id="path_1" />
    <clipPath id="clip_1">
      <use xlink:href="#path_1" clip-rule="evenodd" fill-rule="evenodd" />
    </clipPath>
  </defs>
  <g id="Koho">
    <path d="M64 0L64 0L64 64L0 64L0 0L64 0Z" id="Koho" fill="none" stroke="none" />
    <path d="M1.28 5C0.573105 5.00007 7.08008e-05 5.57311 0 6.28L0 57.48C0.000345459 58.1874 0.573602 58.7602 1.2805 58.76L52.48 58.76C53.1869 58.7599 53.7599 58.1869 53.76 57.48L53.76 33.375C53.7828 33.2368 53.7828 33.0957 53.76 32.9575L53.76 6.28C53.7597 5.57261 53.1864 4.9998 52.4795 5L1.28 5L1.28 5ZM9.6 13.32L17.28 13.32L17.28 28.04C17.2798 28.2945 17.4304 28.5249 17.6636 28.6269C17.8968 28.7288 18.1683 28.683 18.355 28.51L34.81 13.32L45.7675 13.32C38.3862 20.3509 29.6895 28.7414 28.0075 30.3575C27.7599 30.5948 27.7434 30.9851 27.97 31.2425L28.53 31.88L9.6 31.88L9.6 13.32L9.6 13.32ZM2.56 34.44L8.32 34.44L8.32 52.36C8.32017 52.7137 8.6068 53.0001 8.96025 53L17.92 53C18.2734 53 18.56 52.7134 18.56 52.36L18.56 41.1125L21.7775 38.025L34.0675 52.77C34.1893 52.916 34.3698 53.0003 34.56 53L47.36 53C47.6112 52.9997 47.839 52.8524 47.9424 52.6234C48.0459 52.3945 48.0058 52.1262 47.84 51.9375L32.4825 34.44L51.2 34.44L51.2 56.2L2.56 56.2L2.56 34.44L2.56 34.44Z" id="Shape" fill="#BE185D" fill-rule="evenodd" stroke="none" clip-path="url(#clip_1)" />
  </g>
</svg>