<?xml version="1.0" encoding="utf-8"?>
<svg width="50px" height="50px" viewBox="0 0 50 50" version="1.1" xmlns:xlink="http://www.w3.org/1999/xlink"
  xmlns="http://www.w3.org/2000/svg">
  <defs>
    <path d="M50 0L50 0L50 50L0 50L0 0L50 0Z" id="path_1" />
    <clipPath id="clip_1">
      <use xlink:href="#path_1" clip-rule="evenodd" fill-rule="evenodd" />
    </clipPath>
  </defs>
  <g id="Monzo">
    <path d="M50 0L50 0L50 50L0 50L0 0L50 0Z" id="Monzo" fill="none" stroke="none" />
    <path
      d="M46.707 12.293L38.707 4.293C38.316 3.902 37.684 3.902 37.293 4.293L25 16.586L12.707 4.293C12.316 3.902 11.684 3.902 11.293 4.293L3.293 12.293C3.105 12.48 3 12.735 3 13L3 36C3 36.265 3.105 36.52 3.293 36.707L13.293 46.707C13.579 46.994 14.011 47.079 14.383 46.924C14.757 46.769 15 46.404 15 46L15 25.414L24.293 34.707C24.488 34.902 24.744 35 25 35C25.256 35 25.512 34.902 25.707 34.707L35 25.414L35 46C35 46.404 35.243 46.769 35.617 46.924C35.741 46.975 35.871 47 36 47C36.26 47 36.516 46.898 36.707 46.707L46.707 36.707C46.895 36.52 47 36.265 47 36L47 13C47 12.735 46.895 12.48 46.707 12.293L46.707 12.293Z"
      id="Path" fill="#ff4f40" stroke="none" clip-path="url(#clip_1)" />
  </g>
</svg>