<?xml version="1.0" encoding="utf-8"?>
<svg width="40px" height="40px" viewBox="0 0 40 40" version="1.1" xmlns:xlink="http://www.w3.org/1999/xlink" xmlns="http://www.w3.org/2000/svg">
  <path d="M13 0C10.239 0 8 2.239 8 5L8 6L27.5 6C31.09 6 34 8.91 34 12.5L34 22.5C34 24.433 32.433 26 30.5 26L17.5 26C15.567 26 14 24.433 14 22.5L14 16L10 16C8.895 16 8 16.895 8 18L8 27C8 29.761 10.239 32 13 32L35 32C37.761 32 40 29.761 40 27L40 5C40 2.239 37.761 0 35 0L13 0L13 0ZM5 8C2.239 8 0 10.239 0 13L0 35C0 37.761 2.239 40 5 40L27 40C29.761 40 32 37.761 32 35L32 34L12.5 34C8.91 34 6 31.09 6 27.5L6 17.5C6 15.567 7.567 14 9.5 14L22.5 14C24.433 14 26 15.567 26 17.5L26 24L30 24C31.105 24 32 23.105 32 22L32 13C32 10.239 29.761 8 27 8L5 8L5 8Z" id="Shape" fill="#818CF8" fill-rule="evenodd" stroke="none" />
</svg>