<?xml version="1.0" encoding="utf-8"?>
<svg width="256px" height="256px" viewBox="0 0 256 256" version="1.1" xmlns:xlink="http://www.w3.org/1999/xlink" xmlns="http://www.w3.org/2000/svg">
  <defs>
    <linearGradient gradientUnits="objectBoundingBox" x1="0.5" y1="0.99999994" x2="0.5" y2="0.0369796" id="gradient_1">
      <stop offset="0%" stop-color="#4BCAEE" />
      <stop offset="53.899998%" stop-color="#56CDF0" />
      <stop offset="100%" stop-color="#64D0F3" />
    </linearGradient>
    <linearGradient gradientUnits="objectBoundingBox" x1="0.5" y1="0.0131034255" x2="0.5" y2="1.0131035" id="gradient_2">
      <stop offset="0%" stop-color="#30C3EA" />
      <stop offset="16.9%" stop-color="#2BBCE7" />
      <stop offset="40.6%" stop-color="#1EAADF" />
      <stop offset="47.9%" stop-color="#19A3DC" />
      <stop offset="100%" stop-color="#18A1DB" />
    </linearGradient>
    <linearGradient gradientUnits="objectBoundingBox" x1="0.49999332" y1="0.051695585" x2="0.49999332" y2="0.992" id="gradient_3">
      <stop offset="0%" stop-color="#38CAED" />
      <stop offset="62.699997%" stop-color="#26B3E3" />
      <stop offset="99.6%" stop-color="#1AA3DC" />
    </linearGradient>
    <linearGradient gradientUnits="objectBoundingBox" x1="0.5" y1="0.046857238" x2="0.5" y2="1.0468572" id="gradient_4">
      <stop offset="0%" stop-color="#40C8EE" />
      <stop offset="100%" stop-color="#2DBAE8" />
    </linearGradient>
    <linearGradient gradientUnits="objectBoundingBox" x1="0.49999472" y1="1" x2="0.49999472" y2="0" id="gradient_5">
      <stop offset="0%" stop-color="#7AD9F6" />
      <stop offset="100%" stop-color="#85DBF8" />
    </linearGradient>
    <linearGradient gradientUnits="objectBoundingBox" x1="0.5" y1="1.5947273" x2="0.5" y2="-0.3657273" id="gradient_6">
      <stop offset="1.8%" stop-color="#FFF8E5" />
      <stop offset="100%" stop-color="#FFFEF8" />
    </linearGradient>
    <path d="M256 0L256 0L256 256L0 256L0 0L256 0Z" id="path_1" />
    <clipPath id="clip_1">
      <use xlink:href="#path_1" clip-rule="evenodd" fill-rule="evenodd" />
    </clipPath>
  </defs>
  <g id="News">
    <path d="M256 0L256 0L256 256L0 256L0 0L256 0Z" id="News" fill="none" stroke="none" />
    <path d="M232.001 82L212.429 82C208.445 82 204.749 79.276 204.109 75.344C203.297 70.332 207.141 66 212.001 66L215.321 66C221.817 66 227.645 61.136 227.985 54.644C228.345 47.724 222.841 42 216.001 42L172.001 42L140.001 42L112.001 42L112.001 46L72.5927 46C66.2647 46 60.5807 50.648 60.0447 56.952C59.4407 64.068 65.0527 70.032 72.0527 70C74.9967 69.988 77.8607 70.92 80.0007 72.748L80.0007 86L50.7927 86C43.2127 86 36.4167 91.676 36.0207 99.248C35.6087 107.112 41.7007 113.6 49.3927 113.936C51.6327 118.684 56.4047 122 62.0007 122L79.6447 122C79.7647 122 79.8807 122.024 80.0007 122.028L80.0007 138.036C76.6407 138.264 73.5207 139.716 71.2967 142L44.0007 142C38.4767 142 34.0007 146.476 34.0007 152C34.0007 157.524 38.4767 162 44.0007 162L46.0007 162C51.5247 162 56.0007 166.476 56.0007 172C56.0007 177.524 51.5247 182 46.0007 182L20.6807 182C14.1807 182 8.35671 186.864 8.01671 193.356C7.65671 200.276 13.1607 206 20.0007 206L39.5727 206C43.5567 206 47.2527 208.724 47.8927 212.656C48.7047 217.668 44.8607 222 40.0007 222L36.6807 222C30.1807 222 24.3567 226.864 24.0167 233.356C23.6567 240.276 29.1607 246 36.0007 246L179.409 246C185.737 246 191.421 241.352 191.957 235.048C192.561 227.932 186.949 221.968 179.949 222C176.417 222.016 173.037 220.64 170.865 218L172.001 218L172.001 202L201.209 202C208.789 202 215.585 196.324 215.981 188.752C216.405 180.68 209.981 174 202.001 174L201.169 174C198.613 169.5 194.565 166 190.001 166L172.357 166C172.237 166 172.121 165.976 172.001 165.972L172.001 149.968C175.361 149.74 178.481 148.288 180.705 146.004L208.001 146.004C213.525 146.004 218.001 141.528 218.001 136.004C218.001 130.48 213.525 126.004 208.001 126.004L206.001 126.004C200.477 126.004 196.001 121.528 196.001 116.004C196.001 110.48 200.477 106.004 206.001 106.004L231.321 106.004C237.817 106.004 243.645 101.14 243.985 94.648C244.345 87.724 238.841 82 232.001 82L232.001 82Z" id="Shape" fill="#FFFFFF" stroke="none" clip-path="url(#clip_1)" />
    <path d="M212 228L64 228C41.908 228 24 210.092 24 188L24 44C24 37.372 29.372 32 36 32L164 32C170.628 32 176 37.372 176 44L176 192C176 211.884 192.116 228 212 228L212 228L212 228Z" id="Shape" fill="url(#gradient_1)" stroke="none" clip-path="url(#clip_1)" />
    <path d="M210 228L210 228C191.224 228 176 212.78 176 194L176 112L232 112C238.628 112 244 117.372 244 124L244 194C244 212.78 228.776 228 210 228L210 228Z" id="Shape" fill="url(#gradient_2)" stroke="none" clip-path="url(#clip_1)" />
    <path d="M219.892 121.344C219.252 125.276 215.556 128 211.572 128L204.428 128C200.444 128 196.748 130.724 196.108 134.656C195.296 139.668 199.14 144 204 144L210 144C213.312 144 216 146.688 216 150C216 153.312 213.312 156 210 156L198.492 156C193.26 156 188.496 159.764 187.972 164.968C187.376 170.956 192.06 176 197.92 176L222 176C225.312 176 228 178.688 228 182C228 185.312 225.312 188 222 188L216.428 188C212.444 188 208.748 190.724 208.108 194.656C207.296 199.668 211.14 204 216 204L242.5 204C243.472 200.836 244 197.48 244 194L244 124C244 117.372 238.628 112 232 112L212 112C216.86 112 220.704 116.332 219.892 121.344L219.892 121.344Z" id="Shape" fill="url(#gradient_3)" stroke="none" clip-path="url(#clip_1)" />
    <path d="M48 154L48 154C48 159.524 52.476 164 58 164L72 164C76.42 164 80 167.58 80 172L80 172C80 176.42 76.42 180 72 180L64 180C59.58 180 56 183.58 56 188L56 188C56 192.42 59.58 196 64 196L92 196C96.42 196 100 199.58 100 204L100 204C100 208.42 96.42 212 92 212L84 212C79.58 212 76 215.58 76 220L76 220C76 224.42 79.58 228 84 228L210 228L210 228C191.224 228 176 212.78 176 194L176 144L58 144C52.476 144 48 148.476 48 154L48 154Z" id="Shape" fill="url(#gradient_4)" stroke="none" clip-path="url(#clip_1)" />
    <path d="M56 76L63.572 76C67.556 76 71.252 73.276 71.892 69.344C72.704 64.332 68.86 60 64 60L58 60C54.688 60 52 57.312 52 54L52 54C52 50.688 54.688 48 58 48L88 48C92.86 48 96.704 43.668 95.892 38.656C95.252 34.724 91.556 32 87.572 32L36 32C29.372 32 24 37.372 24 44L24 92L63.572 92C67.556 92 71.252 89.276 71.892 85.344C72.704 80.332 68.86 76 64 76L56 76L56 76L56 76Z" id="Shape" fill="url(#gradient_5)" stroke="none" clip-path="url(#clip_1)" />
    <path d="M144 108L56 108C51.58 108 48 104.42 48 100L48 72C48 67.58 51.58 64 56 64L144 64C148.42 64 152 67.58 152 72L152 100C152 104.42 148.42 108 144 108L144 108Z" id="Shape" fill="url(#gradient_6)" stroke="none" clip-path="url(#clip_1)" />
    <path d="M108 144L56 144C51.58 144 48 140.42 48 136L48 136C48 131.58 51.58 128 56 128L108 128C112.42 128 116 131.58 116 136L116 136C116 140.42 112.42 144 108 144L108 144ZM144 144L136 144C131.58 144 128 140.42 128 136L128 136C128 131.58 131.58 128 136 128L144 128C148.42 128 152 131.58 152 136L152 136C152 140.42 148.42 144 144 144L144 144ZM64 200L56 200C51.58 200 48 196.42 48 192L48 192C48 187.58 51.58 184 56 184L64 184C68.42 184 72 187.58 72 192L72 192C72 196.42 68.42 200 64 200L64 200ZM144 200L92 200C87.58 200 84 196.42 84 192L84 192C84 187.58 87.58 184 92 184L144 184C148.42 184 152 187.58 152 192L152 192C152 196.42 148.42 200 144 200L144 200ZM80 172L56 172C51.58 172 48 168.42 48 164L48 164C48 159.58 51.58 156 56 156L80 156C84.42 156 88 159.58 88 164L88 164C88 168.42 84.42 172 80 172L80 172ZM144 172L108 172C103.58 172 100 168.42 100 164L100 164C100 159.58 103.58 156 108 156L144 156C148.42 156 152 159.58 152 164L152 164C152 168.42 148.42 172 144 172L144 172Z" id="Group" fill="#FFFFFF" fill-rule="evenodd" stroke="none" clip-path="url(#clip_1)" />
  </g>
</svg>